<?xml version="1.0" ?><!DOCTYPE svg  PUBLIC '-//W3C//DTD SVG 1.1//EN'  'http://www.w3.org/Graphics/SVG/1.1/DTD/svg11.dtd'><svg enable-background="new 0 0 135 135" height="135px" id="Livello_1" version="1.1" viewBox="0 0 135 135" width="135px" xml:space="preserve" xmlns="http://www.w3.org/2000/svg" xmlns:xlink="http://www.w3.org/1999/xlink"><path d="M40.642,109.46" fill="none"/><path d="M129.255,30.685v15.458H89.934c-5.732-5.608-13.701-9.088-22.515-9.088  c-8.815,0-16.783,3.48-22.515,9.088H5.745V30.685c0-7.933,4.078-14.944,10.32-19.208v25.344h5.008V8.844  c1.136-0.44,2.314-0.799,3.527-1.072v29.05h5.009V7.163c0.188-0.004,0.375-0.014,0.564-0.014h2.892v29.672h5.008V7.149h66.753  C118.318,7.149,129.255,17.687,129.255,30.685z M118.09,20.766c0-2.085-1.754-3.775-3.918-3.775h-13.205  c-2.165,0-3.918,1.69-3.918,3.775v13.003c0,2.085,1.754,3.775,3.918,3.775h13.205c2.164,0,3.918-1.69,3.918-3.775L118.09,20.766  L118.09,20.766z" fill="#AA8568" id="instagram-icon"/><path d="M93.176,50.95h36.079v53.364c0,12.999-10.936,23.536-24.428,23.536H30.173  c-13.491,0-24.428-10.538-24.428-23.536V50.95h35.917c-3.676,4.977-5.846,11.058-5.846,17.632c0,16.817,14.149,30.449,31.603,30.449  c17.454,0,31.603-13.633,31.603-30.449C99.022,62.008,96.852,55.927,93.176,50.95z" fill="#BAB1A9"/><path d="M83.532,50.891c-1.786-1.509-3.801-2.77-5.99-3.729c-3.064-1.343-6.462-2.098-10.043-2.098  c-3.58,0-6.979,0.755-10.043,2.098c-2.188,0.959-4.203,2.22-5.989,3.729c-5.091,4.303-8.315,10.61-8.315,17.633  c0,12.935,10.922,23.458,24.347,23.458c13.425,0,24.347-10.523,24.347-23.458C91.847,61.501,88.624,55.194,83.532,50.891z   M67.5,86.229c-10.133,0-18.377-7.943-18.377-17.706c0-5.301,2.433-10.061,6.276-13.309c1.348-1.139,2.869-2.091,4.521-2.814  c2.313-1.013,4.878-1.583,7.58-1.583c2.702,0,5.267,0.57,7.58,1.583c1.652,0.724,3.173,1.675,4.521,2.814  c3.843,3.248,6.276,8.008,6.276,13.309C85.877,78.286,77.633,86.229,67.5,86.229z" fill="#455B5A"/></svg>