<?xml version="1.0" ?><!DOCTYPE svg  PUBLIC '-//W3C//DTD SVG 1.1//EN'  'http://www.w3.org/Graphics/SVG/1.1/DTD/svg11.dtd'><svg enable-background="new 0 0 135 135" height="135px" id="Livello_1" version="1.1" viewBox="0 0 135 135" width="135px" xml:space="preserve" xmlns="http://www.w3.org/2000/svg" xmlns:xlink="http://www.w3.org/1999/xlink"><path d="M131.464,30.641c-4.703,1.94-9.757,3.251-15.062,3.839  c5.414-3.018,9.573-7.796,11.531-13.49c-5.068,2.794-10.68,4.823-16.654,5.917c-4.784-4.739-11.599-7.699-19.143-7.699  c-16.928,0-29.372,14.687-25.546,29.939C44.794,48.13,25.47,38.422,12.535,23.671c-6.87,10.957-3.563,25.296,8.116,32.553  c-4.298-0.126-8.343-1.223-11.878-3.05c-0.285,11.297,8.422,21.86,21.034,24.216c-3.691,0.934-7.734,1.148-11.843,0.417  c3.337,9.687,13.022,16.736,24.498,16.933c-11.026,8.033-24.912,11.622-38.826,10.097c11.606,6.918,25.391,10.955,40.201,10.955  c48.69,0,76.199-38.236,74.541-72.53C123.502,39.825,127.948,35.53,131.464,30.641z" fill="#30ACE3" id="twitter-icon_1_"/></svg>